<?xml version="1.0" encoding="utf-8"?>
<svg version="1.1" id="Layer_1" xmlns="http://www.w3.org/2000/svg" xmlns:xlink="http://www.w3.org/1999/xlink" x="0px" y="0px"
	 viewBox="0 0 1080 220" style="enable-background:new 0 0 1080 220;" xml:space="preserve">

<style type="text/css">
	.st0{fill:#FFFFFF;stroke:#A9A9B7;stroke-width:2;stroke-miterlimit:10;}
	.st1{fill:#FFFFFF;stroke:#CBCCD1;stroke-width:2;stroke-miterlimit:10;}
	.st2{fill:#A9A9B7;}
	.st3{fill:none;stroke:#A9A9B7;stroke-width:2;stroke-miterlimit:10;}
	.st4{fill:#E5E5E5;}
	.st5{fill:none;stroke:#A9A9B7;stroke-miterlimit:10;}
	.st6{fill:none;stroke:#EDEDED;stroke-width:2;stroke-miterlimit:10;}
	.st7{fill:#CBCCD1;}
	.st8{fill:#E5E5E5;stroke:#A9A9B7;stroke-width:2;stroke-miterlimit:10;}
	.st9{opacity:0.93;fill:#A9A9B7;}

	.seat-available .seat-path{fill:#FFFFFF;stroke:#CBCCD1;stroke-width:2;stroke-miterlimit:10;}
	.seat-available .seat-number{fill:#000000;font-weight:bold;}
	.seat-hover .seat-path,.seat-available:hover .seat-path{fill:#BDDEFE;stroke:#83ABE5;stroke-width:2;stroke-miterlimit:10;}
	.seat-hover .seat-number,.seat-available:hover .seat-number{fill:#000000;font-weight:bold;}
	.seat-selected .seat-path{fill:#83ABE5;stroke:#477BBA;stroke-width:2;stroke-miterlimit:10;}
	.seat-selected .seat-number{fill:#000000;font-weight:bold;}
	.seat-unavailable .seat-path{fill:#E5E5E5;stroke:#CBCCD1;stroke-width:2;stroke-miterlimit:10;}
	.seat-unavailable .seat-number{fill:#000000;font-weight:bold;}

	.seat-path,.seat-number{transition:all .25s ease;}
	[id^="seat_"]{cursor:pointer;}
</style>

<g>
	<path id="_x3C_carriage_x3E_" class="st0" d="M1021,190H59c-5,0-9-4-9-9V39c0-5,4-9,9-9h962c5,0,9,4,9,9v142C1030,186,1026,190,1021,190z"/>
	<rect x="35" y="72.5" class="st0" width="15" height="75"/>
	<rect x="1030" y="72.5" class="st0" width="15" height="75"/>
</g>

<g id="section_x5F_5">
	<g id="seat_x5F_18_x5F_L" class="seat-available">
		<path class="seat-path" d="M729,86v42.5h24c2.8,0,5-2.2,5-5V86.2"/>
		<path class="seat-number" d="M741.9,102.1v10.2h-1.5v-8.8h-0.1l-2.4,1.8v-1.6l2.2-1.6H741.9z M747.4,112.4c-0.7,0-1.3-0.1-1.9-0.4s-1-0.6-1.3-1c-0.3-0.4-0.5-0.9-0.5-1.5c0-0.4,0.1-0.8,0.3-1.2s0.4-0.7,0.7-0.9c0.3-0.2,0.7-0.4,1.1-0.5V107c-0.5-0.1-0.9-0.4-1.2-0.8c-0.3-0.4-0.5-0.9-0.5-1.5c0-0.5,0.1-1,0.4-1.4s0.7-0.7,1.2-1c0.5-0.2,1.1-0.4,1.7-0.4c0.6,0,1.2,0.1,1.7,0.4c0.5,0.2,0.9,0.6,1.2,1s0.4,0.9,0.4,1.4c0,0.5-0.2,1-0.5,1.5c-0.3,0.4-0.7,0.7-1.2,0.8v0.1c0.4,0.1,0.7,0.2,1,0.5c0.3,0.2,0.6,0.5,0.7,0.9s0.3,0.8,0.3,1.2c0,0.5-0.2,1-0.5,1.5c-0.3,0.4-0.7,0.8-1.3,1S748.1,112.4,747.4,112.4z M747.4,111.2c0.4,0,0.8-0.1,1.1-0.2s0.5-0.3,0.7-0.6c0.2-0.3,0.3-0.5,0.3-0.9c0-0.4-0.1-0.7-0.3-0.9c-0.2-0.3-0.4-0.5-0.7-0.6s-0.7-0.2-1.1-0.2c-0.4,0-0.7,0.1-1.1,0.2s-0.6,0.4-0.7,0.6s-0.3,0.6-0.3,0.9c0,0.3,0.1,0.6,0.2,0.9c0.2,0.3,0.4,0.5,0.7,0.6S747,111.2,747.4,111.2z M747.4,106.4c0.3,0,0.6-0.1,0.9-0.2c0.3-0.1,0.5-0.3,0.6-0.6c0.2-0.2,0.2-0.5,0.2-0.8c0-0.3-0.1-0.6-0.2-0.8s-0.3-0.4-0.6-0.6c-0.3-0.1-0.6-0.2-0.9-0.2s-0.7,0.1-0.9,0.2c-0.3,0.1-0.5,0.3-0.6,0.6s-0.2,0.5-0.2,0.8c0,0.3,0.1,0.6,0.2,0.8c0.1,0.2,0.4,0.4,0.6,0.6C746.8,106.4,747.1,106.4,747.4,106.4z"/>
	</g>
	<g id="seat_x5F_17_x5F_U" class="seat-available">
		<path class="seat-path" d="M730,36h26c2.8,0,5,2.2,5,5v40c0,2.8-2.2,5-5,5h-26"/>
		<path class="seat-number" d="M742.8,56.1v10.2h-1.5v-8.8h-0.1l-2.4,1.8v-1.6l2.2-1.6H742.8z M745.2,66.3l4.4-8.8v-0.1h-5.1v-1.3h6.8v1.4l-4.4,8.8H745.2z"/>
	</g>
	<g id="seat_x5F_20_x5F_L" class="seat-available">
		<path class="seat-path" d="M826,86.2v37.3c0,2.8,2.2,5,5,5h24V86"/>
		<path class="seat-number" d="M831.7,112.3v-1.1l3.5-3.6c0.4-0.4,0.7-0.7,0.9-1s0.4-0.6,0.5-0.8s0.2-0.5,0.2-0.8c0-0.3-0.1-0.6-0.2-0.9s-0.4-0.4-0.6-0.6s-0.6-0.2-0.9-0.2c-0.4,0-0.7,0.1-0.9,0.2c-0.3,0.1-0.5,0.4-0.6,0.6s-0.2,0.6-0.2,1h-1.5c0-0.6,0.1-1.2,0.4-1.6c0.3-0.5,0.7-0.8,1.2-1.1c0.5-0.3,1.1-0.4,1.7-0.4c0.6,0,1.2,0.1,1.7,0.4s0.9,0.6,1.2,1c0.3,0.4,0.4,0.9,0.4,1.5c0,0.4-0.1,0.7-0.2,1.1s-0.4,0.8-0.7,1.2s-0.8,1-1.5,1.6l-2,2.1v0.1h4.6v1.3H831.7z M843.8,112.4c-0.8,0-1.5-0.2-2-0.6s-1-1-1.3-1.8c-0.3-0.8-0.4-1.7-0.4-2.8c0-1.1,0.1-2,0.4-2.8s0.7-1.4,1.3-1.8s1.2-0.6,2-0.6c0.8,0,1.5,0.2,2,0.6s1,1,1.3,1.8s0.4,1.7,0.4,2.8s-0.1,2-0.4,2.8s-0.7,1.4-1.3,1.8S844.6,112.4,843.8,112.4z M843.8,111.1c0.5,0,0.9-0.2,1.2-0.5c0.3-0.3,0.6-0.8,0.7-1.3s0.3-1.3,0.3-2.1c0-0.8-0.1-1.5-0.3-2.1s-0.4-1-0.7-1.3c-0.3-0.3-0.7-0.5-1.2-0.5s-0.9,0.2-1.2,0.5s-0.6,0.8-0.8,1.3c-0.2,0.6-0.3,1.3-0.3,2.1c0,0.8,0.1,1.5,0.3,2.1s0.4,1,0.8,1.3C842.9,110.9,843.3,111.1,843.8,111.1z"/>
	</g>
	<g id="seat_x5F_19_x5F_U" class="seat-available">
		<path class="seat-path" d="M854,36h-26c-2.8,0-5,2.2-5,5v40c0,2.8,2.2,5,5,5h26"/>
		<path class="seat-number" d="M836.9,56.6v10.2h-1.5v-8.8h-0.1l-2.4,1.8v-1.6l2.2-1.6H836.9z M842.2,67c-0.6,0-1.2-0.1-1.6-0.4c-0.5-0.2-0.9-0.6-1.2-1c-0.3-0.4-0.5-0.9-0.6-1.5h1.5c0.1,0.4,0.3,0.8,0.6,1c0.3,0.3,0.7,0.4,1.2,0.4c0.5,0,0.9-0.1,1.3-0.4s0.6-0.7,0.8-1.3c0.2-0.5,0.3-1.2,0.3-2h-0.1c-0.2,0.3-0.4,0.5-0.6,0.7s-0.5,0.4-0.9,0.5s-0.7,0.2-1,0.2c-0.6,0-1.1-0.1-1.6-0.4s-0.9-0.7-1.1-1.2s-0.4-1.1-0.4-1.7c0-0.7,0.1-1.2,0.4-1.8c0.3-0.5,0.7-0.9,1.2-1.2c0.5-0.3,1.2-0.5,1.9-0.4c0.5,0,0.9,0.1,1.3,0.3s0.8,0.4,1.2,0.8c0.4,0.4,0.6,0.9,0.9,1.5c0.2,0.6,0.3,1.4,0.3,2.3c0,0.9-0.1,1.7-0.3,2.4s-0.4,1.3-0.8,1.8s-0.7,0.8-1.2,1.1C843.3,66.9,842.8,67,842.2,67z M842.3,62c0.3,0,0.6-0.1,0.8-0.2s0.5-0.3,0.7-0.5c0.2-0.2,0.3-0.4,0.4-0.7c0.1-0.3,0.2-0.5,0.2-0.8c0-0.4-0.1-0.7-0.3-1s-0.4-0.6-0.7-0.8s-0.7-0.3-1-0.3c-0.4,0-0.7,0.1-1,0.3c-0.3,0.2-0.6,0.4-0.7,0.8c-0.2,0.3-0.3,0.7-0.3,1.1s0.1,0.7,0.3,1.1c0.2,0.3,0.4,0.6,0.7,0.8C841.6,62,841.9,62,842.3,62z"/>
	</g>
</g>

<g id="section_x5F_4">
	<g id="seat_x5F_14_x5F_L" class="seat-available">
		<path class="seat-path" d="M632,86.2v37.3c0,2.8-2.2,5-5,5h-24V86"/>
		<path class="seat-number" d="M615.7,102.1v10.2h-1.5v-8.8h-0.1l-2.4,1.8v-1.6l2.2-1.6H615.7z M617.6,110.3V109l4.4-6.9h1v1.9h-0.6l-3.1,4.9v0.1h6v1.3H617.6z M622.4,112.3v-2.4l0-0.6v-7.2h1.5v10.2H622.4z"/>
	</g>
	<g id="seat_x5F_13_x5F_U" class="seat-available">
		<path class="seat-path" d="M604,36h26c2.8,0,5,2.2,5,5v40c0,2.8-2.2,5-5,5h-26"/>
		<path class="seat-number" d="M616.4,56.1v10.2h-1.5v-8.8h-0.1l-2.4,1.8v-1.6l2.2-1.6H616.4z M621.9,66.4c-0.7,0-1.3-0.1-1.8-0.4s-1-0.6-1.3-1s-0.5-0.9-0.5-1.5h1.6c0,0.3,0.1,0.6,0.3,0.8s0.4,0.4,0.7,0.5s0.6,0.2,1,0.2c0.4,0,0.8-0.1,1.1-0.2s0.5-0.3,0.7-0.6c0.2-0.2,0.3-0.5,0.3-0.9c0-0.3-0.1-0.6-0.3-0.9c-0.2-0.3-0.4-0.5-0.8-0.6s-0.7-0.2-1.2-0.2h-0.9v-1.3h0.9c0.4,0,0.7-0.1,1-0.2c0.3-0.1,0.5-0.3,0.7-0.6s0.2-0.5,0.2-0.8c0-0.3-0.1-0.6-0.2-0.8s-0.3-0.4-0.6-0.5c-0.3-0.1-0.6-0.2-0.9-0.2c-0.3,0-0.6,0.1-0.9,0.2c-0.3,0.1-0.5,0.3-0.7,0.5s-0.3,0.5-0.3,0.8h-1.5c0-0.6,0.2-1,0.5-1.5s0.7-0.7,1.2-1c0.5-0.2,1.1-0.4,1.7-0.4c0.7,0,1.2,0.1,1.7,0.4s0.9,0.6,1.1,1c0.3,0.4,0.4,0.9,0.4,1.4c0,0.6-0.2,1.1-0.5,1.5c-0.3,0.4-0.7,0.7-1.3,0.8v0.1c0.5,0.1,0.8,0.2,1.2,0.4c0.3,0.2,0.6,0.5,0.7,0.8s0.2,0.7,0.2,1.1c0,0.6-0.2,1.1-0.5,1.5s-0.7,0.8-1.3,1S622.6,66.4,621.9,66.4z"/>
	</g>
	<g id="seat_x5F_16_x5F_L" class="seat-available">
		<path class="seat-path" d="M700,86.2v37.3c0,2.8,2.2,5,5,5h24V86"/>
		<path class="seat-number" d="M710.9,102.1v10.2h-1.5v-8.8h-0.1l-2.4,1.8v-1.6l2.2-1.6H710.9z M716.5,112.4c-0.5,0-0.9-0.1-1.4-0.2c-0.4-0.2-0.8-0.4-1.2-0.8c-0.4-0.4-0.6-0.9-0.9-1.5s-0.3-1.4-0.3-2.3c0-0.9,0.1-1.7,0.3-2.4s0.4-1.3,0.8-1.8s0.7-0.8,1.2-1.1c0.5-0.2,1-0.4,1.6-0.4c0.6,0,1.1,0.1,1.6,0.4c0.5,0.2,0.9,0.6,1.2,1s0.5,0.9,0.6,1.4h-1.5c-0.1-0.4-0.3-0.8-0.6-1c-0.3-0.3-0.7-0.4-1.2-0.4c-0.5,0-0.9,0.1-1.3,0.4s-0.6,0.7-0.8,1.3c-0.2,0.5-0.3,1.2-0.3,2h0.1c0.2-0.3,0.4-0.5,0.6-0.7c0.3-0.2,0.5-0.4,0.9-0.5s0.7-0.2,1-0.2c0.6,0,1.1,0.1,1.6,0.4c0.5,0.3,0.9,0.7,1.1,1.2s0.4,1.1,0.4,1.7c0,0.7-0.1,1.2-0.4,1.8s-0.7,0.9-1.2,1.2S717.2,112.4,716.5,112.4z M716.5,111.1c0.4,0,0.7-0.1,1-0.3s0.5-0.4,0.7-0.8c0.2-0.3,0.3-0.7,0.3-1.1c0-0.4-0.1-0.7-0.3-1.1c-0.2-0.3-0.4-0.6-0.7-0.8s-0.6-0.3-1-0.3c-0.3,0-0.6,0.1-0.8,0.2c-0.2,0.1-0.5,0.3-0.7,0.5c-0.2,0.2-0.3,0.4-0.4,0.7c-0.1,0.3-0.2,0.5-0.2,0.8c0,0.4,0.1,0.7,0.3,1c0.2,0.3,0.4,0.6,0.7,0.8S716.1,111.1,716.5,111.1z"/>
	</g>
	<g id="seat_x5F_15_x5F_U" class="seat-available">
		<path class="seat-path" d="M728,36h-26c-2.8,0-5,2.2-5,5v40c0,2.8,2.2,5,5,5h26"/>
		<path class="seat-number" d="M711.1,56.6v10.2h-1.5v-8.8h-0.1l-2.4,1.8v-1.6l2.2-1.6H711.1z M716.3,67c-0.6,0-1.2-0.1-1.7-0.4s-0.9-0.6-1.2-1s-0.5-0.9-0.5-1.4h1.5c0,0.3,0.1,0.5,0.3,0.8c0.2,0.2,0.4,0.4,0.7,0.5s0.6,0.2,0.9,0.2c0.4,0,0.7-0.1,1-0.3s0.5-0.4,0.7-0.7c0.2-0.3,0.3-0.7,0.3-1.1c0-0.4-0.1-0.8-0.3-1.1c-0.2-0.3-0.4-0.6-0.7-0.8s-0.7-0.3-1.1-0.3c-0.3,0-0.6,0.1-0.9,0.2c-0.3,0.1-0.6,0.2-0.7,0.4l-1.4-0.2l0.6-5.1h5.6V58H715l-0.3,2.8h0.1c0.2-0.2,0.5-0.4,0.8-0.5s0.7-0.2,1.1-0.2c0.5,0,0.9,0.1,1.3,0.2c0.4,0.2,0.7,0.4,1,0.7s0.5,0.7,0.7,1.1c0.2,0.4,0.2,0.9,0.2,1.4c0,0.7-0.2,1.2-0.5,1.8c-0.3,0.5-0.7,0.9-1.2,1.2S717,67,716.3,67z"/>
	</g>
</g>

<g id="section_x5F_3">
	<g id="seat_x5F_10_x5F_L" class="seat-available">
		<path class="seat-path" d="M477,86v42.5h24c2.8,0,5-2.2,5-5V86.2"/>
		<path class="seat-number" d="M489.8,102.1v10.2h-1.5v-8.8h-0.1l-2.4,1.8v-1.6l2.2-1.6H489.8z M495.4,112.4c-0.8,0-1.5-0.2-2-0.6s-1-1-1.3-1.8c-0.3-0.8-0.4-1.7-0.4-2.8c0-1.1,0.1-2,0.4-2.8s0.7-1.4,1.3-1.8s1.2-0.6,2-0.6c0.8,0,1.5,0.2,2,0.6s1,1,1.3,1.8s0.4,1.7,0.4,2.8s-0.1,2-0.4,2.8s-0.7,1.4-1.3,1.8S496.2,112.4,495.4,112.4z M495.4,111.1c0.5,0,0.9-0.2,1.2-0.5c0.3-0.3,0.6-0.8,0.7-1.3s0.3-1.3,0.3-2.1c0-0.8-0.1-1.5-0.3-2.1s-0.4-1-0.7-1.3c-0.3-0.3-0.7-0.5-1.2-0.5s-0.9,0.2-1.2,0.5s-0.6,0.8-0.8,1.3c-0.2,0.6-0.3,1.3-0.3,2.1c0,0.8,0.1,1.5,0.3,2.1s0.4,1,0.8,1.3C494.5,110.9,494.9,111.1,495.4,111.1z"/>
	</g>
	<g id="seat_x5F_9_x5F_U" class="seat-available">
		<path class="seat-path" d="M478,36h26c2.8,0,5,2.2,5,5v40c0,2.8-2.2,5-5,5h-26"/>
		<path class="seat-number" d="M492.8,66.4c-0.6,0-1.2-0.1-1.6-0.4c-0.5-0.2-0.9-0.6-1.2-1c-0.3-0.4-0.5-0.9-0.6-1.5h1.5c0.1,0.4,0.3,0.8,0.6,1c0.3,0.3,0.7,0.4,1.2,0.4c0.5,0,0.9-0.1,1.3-0.4s0.6-0.7,0.8-1.3c0.2-0.5,0.3-1.2,0.3-2h-0.1c-0.2,0.3-0.4,0.5-0.6,0.7s-0.5,0.4-0.9,0.5s-0.7,0.2-1,0.2c-0.6,0-1.1-0.1-1.6-0.4s-0.9-0.7-1.1-1.2s-0.4-1.1-0.4-1.7c0-0.7,0.1-1.2,0.4-1.8c0.3-0.5,0.7-0.9,1.2-1.2c0.5-0.3,1.2-0.5,1.9-0.4c0.5,0,0.9,0.1,1.3,0.3s0.8,0.4,1.2,0.8c0.4,0.4,0.6,0.9,0.9,1.5c0.2,0.6,0.3,1.4,0.3,2.3c0,0.9-0.1,1.7-0.3,2.4s-0.4,1.3-0.8,1.8s-0.7,0.8-1.2,1.1C493.9,66.3,493.4,66.4,492.8,66.4z M492.9,61.5c0.3,0,0.6-0.1,0.8-0.2s0.5-0.3,0.7-0.5c0.2-0.2,0.3-0.4,0.4-0.7c0.1-0.3,0.2-0.5,0.2-0.8c0-0.4-0.1-0.7-0.3-1s-0.4-0.6-0.7-0.8s-0.7-0.3-1-0.3c-0.4,0-0.7,0.1-1,0.3c-0.3,0.2-0.6,0.4-0.7,0.8c-0.2,0.3-0.3,0.7-0.3,1.1s0.1,0.7,0.3,1.1c0.2,0.3,0.4,0.6,0.7,0.8C492.2,61.4,492.5,61.5,492.9,61.5z"/>
	</g>
	<g id="seat_x5F_12_x5F_L" class="seat-available">
		<path class="seat-path" d="M574,86.2v37.3c0,2.8,2.2,5,5,5h24V86"/>
		<path class="seat-number" d="M585,102.1v10.2h-1.5v-8.8h-0.1l-2.4,1.8v-1.6l2.2-1.6H585z M587.1,112.3v-1.1l3.5-3.6c0.4-0.4,0.7-0.7,0.9-1s0.4-0.6,0.5-0.8s0.2-0.5,0.2-0.8c0-0.3-0.1-0.6-0.2-0.9s-0.4-0.4-0.6-0.6s-0.6-0.2-0.9-0.2c-0.4,0-0.7,0.1-0.9,0.2c-0.3,0.1-0.5,0.4-0.6,0.6s-0.2,0.6-0.2,1h-1.5c0-0.6,0.1-1.2,0.4-1.6c0.3-0.5,0.7-0.8,1.2-1.1c0.5-0.3,1.1-0.4,1.7-0.4c0.6,0,1.2,0.1,1.7,0.4s0.9,0.6,1.2,1c0.3,0.4,0.4,0.9,0.4,1.5c0,0.4-0.1,0.7-0.2,1.1s-0.4,0.8-0.7,1.2s-0.8,1-1.5,1.6l-2,2.1v0.1h4.6v1.3H587.1z"/>
	</g>
	<g id="seat_x5F_11_x5F_U" class="seat-available">
		<path class="seat-path" d="M602,36h-26c-2.8,0-5,2.2-5,5v40c0,2.8,2.2,5,5,5h26"/>
		<path class="seat-number" d="M586.4,56.6v10.2h-1.5v-8.8h-0.1l-2.4,1.8v-1.6l2.2-1.6H586.4z M592.2,56.6v10.2h-1.5v-8.8h-0.1l-2.4,1.8v-1.6l2.2-1.6H592.2z"/>
	</g>
</g>

<g id="section_x5F_2">
	<g id="seat_x5F_6_x5F_L" class="seat-available">
		<path class="seat-path" d="M351,86v42.5h24c2.8,0,5-2.2,5-5V86.2"/>
		<path class="seat-number" d="M366.6,112.4c-0.5,0-0.9-0.1-1.4-0.2c-0.4-0.2-0.8-0.4-1.2-0.8c-0.4-0.4-0.6-0.9-0.9-1.5s-0.3-1.4-0.3-2.3c0-0.9,0.1-1.7,0.3-2.4s0.4-1.3,0.8-1.8s0.7-0.8,1.2-1.1c0.5-0.2,1-0.4,1.6-0.4c0.6,0,1.1,0.1,1.6,0.4c0.5,0.2,0.9,0.6,1.2,1s0.5,0.9,0.6,1.4h-1.5c-0.1-0.4-0.3-0.8-0.6-1c-0.3-0.3-0.7-0.4-1.2-0.4c-0.5,0-0.9,0.1-1.3,0.4s-0.6,0.7-0.8,1.3c-0.2,0.5-0.3,1.2-0.3,2h0.1c0.2-0.3,0.4-0.5,0.6-0.7c0.3-0.2,0.5-0.4,0.9-0.5s0.7-0.2,1-0.2c0.6,0,1.1,0.1,1.6,0.4c0.5,0.3,0.9,0.7,1.1,1.2s0.4,1.1,0.4,1.7c0,0.7-0.1,1.2-0.4,1.8s-0.7,0.9-1.2,1.2S367.3,112.4,366.6,112.4z M366.6,111.1c0.4,0,0.7-0.1,1-0.3s0.5-0.4,0.7-0.8c0.2-0.3,0.3-0.7,0.3-1.1c0-0.4-0.1-0.7-0.3-1.1c-0.2-0.3-0.4-0.6-0.7-0.8s-0.6-0.3-1-0.3c-0.3,0-0.6,0.1-0.8,0.2c-0.2,0.1-0.5,0.3-0.7,0.5c-0.2,0.2-0.3,0.4-0.4,0.7c-0.1,0.3-0.2,0.5-0.2,0.8c0,0.4,0.1,0.7,0.3,1c0.2,0.3,0.4,0.6,0.7,0.8S366.2,111.1,366.6,111.1z"/>
	</g>
	<g id="seat_x5F_5_x5F_U" class="seat-available">
		<path class="seat-path" d="M352,36h26c2.8,0,5,2.2,5,5v40c0,2.8-2.2,5-5,5h-26"/>
		<path class="seat-number" d="M366.9,66.4c-0.6,0-1.2-0.1-1.7-0.4s-0.9-0.6-1.2-1s-0.5-0.9-0.5-1.4h1.5c0,0.3,0.1,0.5,0.3,0.8c0.2,0.2,0.4,0.4,0.7,0.5s0.6,0.2,0.9,0.2c0.4,0,0.7-0.1,1-0.3s0.5-0.4,0.7-0.7c0.2-0.3,0.3-0.7,0.3-1.1c0-0.4-0.1-0.8-0.3-1.1c-0.2-0.3-0.4-0.6-0.7-0.8s-0.7-0.3-1.1-0.3c-0.3,0-0.6,0.1-0.9,0.2c-0.3,0.1-0.6,0.2-0.7,0.4l-1.4-0.2l0.6-5.1h5.6v1.3h-4.3l-0.3,2.8h0.1c0.2-0.2,0.5-0.4,0.8-0.5s0.7-0.2,1.1-0.2c0.5,0,0.9,0.1,1.3,0.2c0.4,0.2,0.7,0.4,1,0.7s0.5,0.7,0.7,1.1c0.2,0.4,0.2,0.9,0.2,1.4c0,0.7-0.2,1.2-0.5,1.8c-0.3,0.5-0.7,0.9-1.2,1.2S367.6,66.4,366.9,66.4z"/>
	</g>
	<g id="seat_x5F_8_x5F_L" class="seat-available">
		<path class="seat-path" d="M448,86v37.5c0,2.8,2.2,5,5,5h24V86"/>
		<path class="seat-number" d="M461.5,112.4c-0.7,0-1.3-0.1-1.9-0.4s-1-0.6-1.3-1c-0.3-0.4-0.5-0.9-0.5-1.5c0-0.4,0.1-0.8,0.3-1.2s0.4-0.7,0.7-0.9c0.3-0.2,0.7-0.4,1.1-0.5V107c-0.5-0.1-0.9-0.4-1.2-0.8c-0.3-0.4-0.5-0.9-0.5-1.5c0-0.5,0.1-1,0.4-1.4s0.7-0.7,1.2-1c0.5-0.2,1.1-0.4,1.7-0.4c0.6,0,1.2,0.1,1.7,0.4c0.5,0.2,0.9,0.6,1.2,1s0.4,0.9,0.4,1.4c0,0.5-0.2,1-0.5,1.5c-0.3,0.4-0.7,0.7-1.2,0.8v0.1c0.4,0.1,0.7,0.2,1,0.5c0.3,0.2,0.6,0.5,0.7,0.9s0.3,0.8,0.3,1.2c0,0.5-0.2,1-0.5,1.5c-0.3,0.4-0.7,0.8-1.3,1S462.2,112.4,461.5,112.4z M461.5,111.2c0.4,0,0.8-0.1,1.1-0.2s0.5-0.3,0.7-0.6c0.2-0.3,0.3-0.5,0.3-0.9c0-0.4-0.1-0.7-0.3-0.9c-0.2-0.3-0.4-0.5-0.7-0.6s-0.7-0.2-1.1-0.2c-0.4,0-0.7,0.1-1.1,0.2s-0.6,0.4-0.7,0.6s-0.3,0.6-0.3,0.9c0,0.3,0.1,0.6,0.2,0.9c0.2,0.3,0.4,0.5,0.7,0.6S461.1,111.2,461.5,111.2z M461.5,106.4c0.3,0,0.6-0.1,0.9-0.2c0.3-0.1,0.5-0.3,0.6-0.6c0.2-0.2,0.2-0.5,0.2-0.8c0-0.3-0.1-0.6-0.2-0.8s-0.3-0.4-0.6-0.6c-0.3-0.1-0.6-0.2-0.9-0.2s-0.7,0.1-0.9,0.2c-0.3,0.1-0.5,0.3-0.6,0.6s-0.2,0.5-0.2,0.8c0,0.3,0.1,0.6,0.2,0.8c0.1,0.2,0.4,0.4,0.6,0.6C460.9,106.4,461.2,106.4,461.5,106.4z"/>
	</g>
	<g id="seat_x5F_7_x5F_U" class="seat-available">
		<path class="seat-path" d="M476,36h-26c-2.8,0-5,2.2-5,5v40c0,2.8,2.2,5,5,5h26"/>
		<path class="seat-number" d="M458.8,66.8l4.4-8.8V58h-5.1v-1.3h6.8V58l-4.4,8.8H458.8z"/>
	</g>
</g>

<g id="section_x5F_1">
	<g id="seat_x5F_2_x5F_L" class="seat-available">
		<path class="seat-path" d="M225,86v42.5h24c2.8,0,5-2.2,5-5V86.2"/>
		<path class="seat-number" d="M237.2,112.3v-1.1l3.5-3.6c0.4-0.4,0.7-0.7,0.9-1s0.4-0.6,0.5-0.8s0.2-0.5,0.2-0.8c0-0.3-0.1-0.6-0.2-0.9s-0.4-0.4-0.6-0.6s-0.6-0.2-0.9-0.2c-0.4,0-0.7,0.1-0.9,0.2c-0.3,0.1-0.5,0.4-0.6,0.6s-0.2,0.6-0.2,1h-1.5c0-0.6,0.1-1.2,0.4-1.6c0.3-0.5,0.7-0.8,1.2-1.1c0.5-0.3,1.1-0.4,1.7-0.4c0.6,0,1.2,0.1,1.7,0.4s0.9,0.6,1.2,1c0.3,0.4,0.4,0.9,0.4,1.5c0,0.4-0.1,0.7-0.2,1.1s-0.4,0.8-0.7,1.2s-0.8,1-1.5,1.6l-2,2.1v0.1h4.6v1.3H237.2z"/>
	</g>
	<g id="seat_x5F_1_x5F_U" class="seat-available">
		<path class="seat-path" d="M226,36h26c2.8,0,5,2.2,5,5v40c0,2.8-2.2,5-5,5h-26"/>
		<path class="seat-number" d="M242.8,56.1v10.2h-1.5v-8.8h-0.1l-2.4,1.8v-1.6l2.2-1.6H242.8z"/>
	</g>
	<g id="seat_x5F_4_x5F_L" class="seat-available">
		<path class="seat-path" d="M322,86.2v37.3c0,2.8,2.2,5,5,5h24V86"/>
		<path class="seat-number" d="M331.7,110.3v-1.3l4.4-6.9h1v1.9h-0.6l-3.1,4.9v0.1h6v1.3H331.7z M336.5,112.3v-2.4l0-0.6v-7.2h1.5v10.2H336.5z"/>
	</g>
	<g id="seat_x5F_3_x5F_U" class="seat-available">
		<path class="seat-path" d="M350,36h-26c-2.8,0-5,2.2-5,5v40c0,2.8,2.2,5,5,5h26"/>
		<path class="seat-number" d="M335.5,67c-0.7,0-1.3-0.1-1.8-0.4s-1-0.6-1.3-1s-0.5-0.9-0.5-1.5h1.6c0,0.3,0.1,0.6,0.3,0.8s0.4,0.4,0.7,0.5s0.6,0.2,1,0.2c0.4,0,0.8-0.1,1.1-0.2s0.5-0.3,0.7-0.6c0.2-0.2,0.3-0.5,0.3-0.9c0-0.3-0.1-0.6-0.3-0.9c-0.2-0.3-0.4-0.5-0.8-0.6s-0.7-0.2-1.2-0.2h-0.9V61h0.9c0.4,0,0.7-0.1,1-0.2c0.3-0.1,0.5-0.3,0.7-0.6s0.2-0.5,0.2-0.8c0-0.3-0.1-0.6-0.2-0.8s-0.3-0.4-0.6-0.5c-0.3-0.1-0.6-0.2-0.9-0.2c-0.3,0-0.6,0.1-0.9,0.2c-0.3,0.1-0.5,0.3-0.7,0.5s-0.3,0.5-0.3,0.8h-1.5c0-0.6,0.2-1,0.5-1.5s0.7-0.7,1.2-1c0.5-0.2,1.1-0.4,1.7-0.4c0.7,0,1.2,0.1,1.7,0.4s0.9,0.6,1.1,1c0.3,0.4,0.4,0.9,0.4,1.4c0,0.6-0.2,1.1-0.5,1.5c-0.3,0.4-0.7,0.7-1.3,0.8v0.1c0.5,0.1,0.8,0.2,1.2,0.4c0.3,0.2,0.6,0.5,0.7,0.8s0.2,0.7,0.2,1.1c0,0.6-0.2,1.1-0.5,1.5s-0.7,0.8-1.3,1S336.2,67,335.5,67z"/>
	</g>
</g>

<g id="section_5_"><polyline class="st3" points="729,30 729,135 774,135"/><line class="st3" x1="810" y1="135" x2="855" y2="135"/></g>
<g id="section_4_"><polyline class="st3" points="603,30 603,135 648,135"/><line class="st3" x1="684" y1="135" x2="729" y2="135"/><polyline class="st3" points="729,30 729,135 774,135"/><line class="st3" x1="855" y1="30" x2="855" y2="190"/></g>
<g id="section_3_"><polyline class="st3" points="477,30 477,135 522,135"/><line class="st3" x1="558" y1="135" x2="603" y2="135"/><polyline class="st3" points="603,30 603,135 648,135"/></g>
<g id="section_2_"><polyline class="st3" points="351,30 351,135 396,135"/><line class="st3" x1="432" y1="135" x2="477" y2="135"/><polyline class="st3" points="477,30 477,135 522,135"/></g>
<g id="section_1_"><polyline class="st3" points="225,30 225,135 270,135"/><line class="st3" x1="306" y1="135" x2="351" y2="135"/><polyline class="st3" points="351,30 351,135 396,135"/></g>

<g id="table_10_"><path class="st4" d="M801,59h-18c-2.8,0-5-2.2-5-4.8V31h28v23.2C806,56.8,803.8,59,801,59z"/><g><path class="st2" d="M787.2,47.7v-5.9h9v5.9c0,0.9-0.7,1.7-1.5,1.7h-6C787.9,49.4,787.2,48.6,787.2,47.7z"/><circle class="st5" cx="796.2" cy="45.6" r="2"/><rect x="785.8" y="50" class="st2" width="12" height="1.7"/></g><path class="st2" d="M792.9,39.2c0-0.1,0-0.3,0-0.4c0-0.1,0-0.1,0-0.2c0-0.1,0-0.1-0.1-0.2c0-0.1,0-0.1-0.1-0.2c0,0,0,0,0,0c0,0,0,0,0-0.1c-0.3-0.6-0.9-0.9-0.8-1.7c0-0.4-0.9,0.3-1.2,1.4c0,0.1-0.1,0.2-0.1,0.5c0,0,0,0,0,0c0,0.1,0,0.3,0,0.4c0,0.1,0,0.1,0,0.2c0,0.1,0,0.1,0.1,0.2c0,0.1,0,0.1,0.1,0.2c0,0,0,0,0,0c0,0,0,0,0,0c0.3,0.6,0.9,0.9,0.8,1.7C791.6,41.6,792.9,40.6,792.9,39.2C792.9,39.3,792.9,39.3,792.9,39.2C792.9,39.3,792.9,39.2,792.9,39.2z"/></g>
<g id="table_8_"><path class="st4" d="M675,59h-18c-2.8,0-5-2.2-5-4.8V31h28v23.2C680,56.8,677.8,59,675,59z"/><g><path class="st2" d="M661.2,47.7v-5.9h9v5.9c0,0.9-0.7,1.7-1.5,1.7h-6C661.9,49.4,661.2,48.6,661.2,47.7z"/><circle class="st5" cx="670.2" cy="45.6" r="2"/><rect x="659.8" y="50" class="st2" width="12" height="1.7"/></g><path class="st2" d="M666.9,39.2c0-0.1,0-0.3,0-0.4c0-0.1,0-0.1,0-0.2c0-0.1,0-0.1-0.1-0.2c0-0.1,0-0.1-0.1-0.2c0,0,0,0,0,0c0,0,0,0,0-0.1c-0.3-0.6-0.9-0.9-0.8-1.7c0-0.4-0.9,0.3-1.2,1.4c0,0.1-0.1,0.2-0.1,0.5c0,0,0,0,0,0c0,0.1,0,0.3,0,0.4c0,0.1,0,0.1,0,0.2c0,0.1,0,0.1,0.1,0.2c0,0.1,0,0.1,0.1,0.2c0,0,0,0,0,0c0,0,0,0,0,0c0.3,0.6,0.9,0.9,0.8,1.7C665.6,41.6,666.9,40.6,666.9,39.2C666.9,39.3,666.9,39.3,666.9,39.2C666.9,39.3,666.9,39.2,666.9,39.2z"/></g>
<g id="table_6_"><path class="st4" d="M549,59h-18c-2.8,0-5-2.2-5-4.8V31h28v23.2C554,56.8,551.8,59,549,59z"/><g><path class="st2" d="M535.2,47.7v-5.9h9v5.9c0,0.9-0.7,1.7-1.5,1.7h-6C535.9,49.4,535.2,48.6,535.2,47.7z"/><circle class="st5" cx="544.2" cy="45.6" r="2"/><rect x="533.8" y="50" class="st2" width="12" height="1.7"/></g><path class="st2" d="M540.9,39.2c0-0.1,0-0.3,0-0.4c0-0.1,0-0.1,0-0.2c0-0.1,0-0.1-0.1-0.2c0-0.1,0-0.1-0.1-0.2c0,0,0,0,0,0c0,0,0,0,0-0.1c-0.3-0.6-0.9-0.9-0.8-1.7c0-0.4-0.9,0.3-1.2,1.4c0,0.1-0.1,0.2-0.1,0.5c0,0,0,0,0,0c0,0.1,0,0.3,0,0.4c0,0.1,0,0.1,0,0.2c0,0.1,0,0.1,0.1,0.2c0,0.1,0,0.1,0.1,0.2c0,0,0,0,0,0c0,0,0,0,0,0c0.3,0.6,0.9,0.9,0.8,1.7C539.6,41.6,540.9,40.6,540.9,39.2C540.9,39.3,540.9,39.3,540.9,39.2C540.9,39.3,540.9,39.2,540.9,39.2z"/></g>
<g id="table_4_"><path class="st4" d="M423,59h-18c-2.8,0-5-2.2-5-4.8V31h28v23.2C428,56.8,425.8,59,423,59z"/><g><path class="st2" d="M409.2,47.7v-5.9h9v5.9c0,0.9-0.7,1.7-1.5,1.7h-6C409.9,49.4,409.2,48.6,409.2,47.7z"/><circle class="st5" cx="418.2" cy="45.6" r="2"/><rect x="407.8" y="50" class="st2" width="12" height="1.7"/></g><path class="st2" d="M414.9,39.2c0-0.1,0-0.3,0-0.4c0-0.1,0-0.1,0-0.2c0-0.1,0-0.1-0.1-0.2c0-0.1,0-0.1-0.1-0.2c0,0,0,0,0,0c0,0,0,0,0-0.1c-0.3-0.6-0.9-0.9-0.8-1.7c0-0.4-0.9,0.3-1.2,1.4c0,0.1-0.1,0.2-0.1,0.5c0,0,0,0,0,0c0,0.1,0,0.3,0,0.4c0,0.1,0,0.1,0,0.2c0,0.1,0,0.1,0.1,0.2c0,0.1,0,0.1,0.1,0.2c0,0,0,0,0,0c0,0,0,0,0,0c0.3,0.6,0.9,0.9,0.8,1.7C413.6,41.6,414.9,40.6,414.9,39.2C414.9,39.3,414.9,39.3,414.9,39.2C414.9,39.3,414.9,39.2,414.9,39.2z"/></g>
<g id="table_2_"><path class="st4" d="M297,59h-18c-2.8,0-5-2.2-5-4.8V31h28v23.2C302,56.8,299.8,59,297,59z"/><g><path class="st2" d="M283.2,47.7v-5.9h9v5.9c0,0.9-0.7,1.7-1.5,1.7h-6C283.9,49.4,283.2,48.6,283.2,47.7z"/><circle class="st5" cx="292.2" cy="45.6" r="2"/><rect x="281.8" y="50" class="st2" width="12" height="1.7"/></g><path class="st2" d="M288.9,39.2c0-0.1,0-0.3,0-0.4c0-0.1,0-0.1,0-0.2c0-0.1,0-0.1-0.1-0.2c0-0.1,0-0.1-0.1-0.2c0,0,0,0,0,0c0,0,0,0,0-0.1c-0.3-0.6-0.9-0.9-0.8-1.7c0-0.4-0.9,0.3-1.2,1.4c0,0.1-0.1,0.2-0.1,0.5c0,0,0,0,0,0c0,0.1,0,0.3,0,0.4c0,0.1,0,0.1,0,0.2c0,0.1,0,0.1,0.1,0.2c0,0.1,0,0.1,0.1,0.2c0,0,0,0,0,0c0,0,0,0,0,0c0.3,0.6,0.9,0.9,0.8,1.7C287.6,41.6,288.9,40.6,288.9,39.2C288.9,39.3,288.9,39.3,288.9,39.2C288.9,39.3,288.9,39.2,288.9,39.2z"/></g>

<line id="window_11_" class="st6" x1="769.5" y1="190" x2="814.5" y2="190"/>
<line id="window_10_" class="st6" x1="769.5" y1="30" x2="814.5" y2="30"/>
<line id="window_9_" class="st6" x1="643.5" y1="190" x2="688.5" y2="190"/>
<line id="window_8_" class="st6" x1="643.5" y1="30" x2="688.5" y2="30"/>
<line id="window_7_" class="st6" x1="517.5" y1="190" x2="562.5" y2="190"/>
<line id="window_6_" class="st6" x1="517.5" y1="30" x2="562.5" y2="30"/>
<line id="window_5_" class="st6" x1="391.5" y1="190" x2="436.5" y2="190"/>
<line id="window_4_" class="st6" x1="391.5" y1="30" x2="436.5" y2="30"/>
<line id="window_3_" class="st6" x1="265.5" y1="190" x2="310.5" y2="190"/>
<line id="window_2_" class="st6" x1="265.5" y1="30" x2="310.5" y2="30"/>
<line class="st6" x1="80" y1="30" x2="120" y2="30"/>
<line class="st6" x1="168" y1="30" x2="208" y2="30"/>
<line id="_x3C_window_x3E_" class="st6" x1="192.5" y1="190" x2="217.5" y2="190"/>

<g id="wc">
	<g id="sink">
		<path class="st4" d="M198.2,50h-20.3c-2.7,0-4.8-2-4.8-4.5V31h30v14.5C203,48,200.8,50,198.2,50z"/>
		<path class="st2" d="M193.5,34h-11c-1.1,0-2-0.9-2-2v-1h15v1C195.5,33.1,194.6,34,193.5,34z"/>
		<path class="st7" d="M195,47h-14c-1.7,0-3-1.3-3-3v-4c0-1.7,1.3-3,3-3h14c1.7,0,3,1.3,3,3v4C198,45.7,196.7,47,195,47z"/>
		<line class="st8" x1="188" y1="34" x2="188" y2="40"/>
		<path class="st2" d="M188.5,45h-1c-1.1,0-2-0.9-2-2v-2c0-1.1,0.9-2,2-2h1c1.1,0,2,0.9,2,2v2C190.5,44.1,189.6,45,188.5,45z"/>
	</g>
	<g>
		<path class="st2" d="M179,76.1l-2.8-10.2h1.6l1.5,5.8c0.1,0.4,0.2,0.7,0.3,1.1s0.2,0.8,0.2,1.2s0.1,0.8,0.2,1.2h-0.2c0.1-0.4,0.1-0.8,0.2-1.2s0.2-0.8,0.2-1.2s0.2-0.8,0.3-1.1l1.5-5.8h1.7l1.5,5.8c0.1,0.4,0.2,0.7,0.3,1.1s0.2,0.8,0.2,1.2s0.2,0.8,0.2,1.2h-0.2c0.1-0.4,0.1-0.8,0.2-1.2s0.2-0.8,0.2-1.2s0.2-0.8,0.2-1.1l1.5-5.8h1.7l-2.8,10.2H185l-1.6-6c-0.1-0.5-0.2-1-0.3-1.5s-0.2-1.2-0.3-1.8h0.4c-0.1,0.6-0.2,1.2-0.3,1.8s-0.2,1.1-0.4,1.6l-1.6,6H179z"/>
		<path class="st2" d="M195.3,76.2c-0.9,0-1.7-0.2-2.4-0.6c-0.7-0.4-1.2-1-1.6-1.8c-0.4-0.8-0.6-1.7-0.6-2.8c0-1.1,0.2-2,0.6-2.8c0.4-0.8,0.9-1.4,1.6-1.8s1.5-0.6,2.4-0.6c0.5,0,1,0.1,1.5,0.2s0.9,0.4,1.3,0.7s0.7,0.7,0.9,1.1s0.4,0.9,0.5,1.4h-1.6c-0.1-0.3-0.2-0.6-0.3-0.9c-0.2-0.2-0.4-0.5-0.6-0.6s-0.5-0.3-0.8-0.4s-0.6-0.1-0.9-0.1c-0.6,0-1.1,0.1-1.6,0.4c-0.5,0.3-0.8,0.7-1.1,1.3c-0.3,0.6-0.4,1.3-0.4,2.1s0.1,1.5,0.4,2.1c0.3,0.6,0.6,1,1.1,1.3c0.5,0.3,1,0.4,1.6,0.4c0.3,0,0.6,0,0.9-0.1c0.3-0.1,0.5-0.2,0.8-0.4c0.2-0.2,0.4-0.4,0.6-0.6s0.3-0.5,0.3-0.9h1.6c-0.1,0.5-0.2,1-0.5,1.4c-0.2,0.4-0.5,0.8-0.9,1.1s-0.8,0.5-1.3,0.7C196.3,76.1,195.8,76.2,195.3,76.2z"/>
	</g>
</g>

<g id="walls">
	<line class="st3" x1="150" y1="31" x2="150" y2="102"/>
	<line class="st3" x1="172" y1="103" x2="128" y2="103"/>
	<line class="st3" x1="224" y1="103" x2="203" y2="103"/>
	<polyline class="st3" points="51,135 150,135 150,189"/>
	<polyline class="st3" points="151,135 186,135 186,189"/>
	<line class="st3" x1="855.3" y1="80" x2="1029.4" y2="80"/>
	<polyline class="st3" points="1028.5,135 929.5,135 930,189"/>
	<line class="st3" x1="855" y1="30" x2="855" y2="190"/>
</g>

<g id="_x3C_conductor_x3E_">
	<ellipse class="st2" cx="168" cy="160.8" rx="3.8" ry="4.5"/>
	<g><g><ellipse class="st9" cx="171.6" cy="160.6" rx="0.7" ry="1.5"/><rect x="168" y="159.1" class="st2" width="1.6" height="2.3"/><path class="st2" d="M172.5,158l-0.3,1.6c0,0-1.4,1.1-4.2,1.1c0-2.3,0-3.4,0-6.3C171,154.3,174.1,157.4,172.5,158L172.5,158z"/><rect x="168" y="164.3" class="st2" width="1.8" height="4.5"/></g><g><ellipse class="st9" cx="164.4" cy="160.6" rx="0.7" ry="1.5"/><rect x="166.4" y="159.1" class="st2" width="1.6" height="2.3"/><path class="st2" d="M163.5,158l0.3,1.6c0,0,1.4,1.1,4.2,1.1c0-2.3,0-3.4,0-6.3C165,154.3,161.9,157.4,163.5,158L163.5,158z"/><rect x="166.2" y="164.3" class="st2" width="1.8" height="4.5"/></g></g>
	<path class="st2" d="M176.3,169.7c-0.3-0.8-1.2-0.9-2-1.2c-0.8-0.3-3.1-1.2-3.3-1.3c-0.3-0.2-0.6-0.8-0.7-1.2c-0.1,0-0.3,0-0.5-0.1c0,0,0,0,0-0.1l-3.6,0c0,0,0,0,0,0l-0.5,0.1c-0.1,0.3-0.4,1-0.7,1.2c-0.2,0.1-2.5,1-3.3,1.3c-0.8,0.3-1.7,0.4-2,1.2c0,0.5-0.1,1.8,0,2.5l16.6,0C176.3,171.5,176.3,170.3,176.3,169.7L176.3,169.7z"/>
	<path class="st2" d="M174,157.5c0,1.3-2.7,3-6,3s-6-1.7-6-3s2.7-3.3,6-3.3S174,156.2,174,157.5z"/>
</g>

<g id="_x3C_exit_x3E_">
	<rect x="872.5" y="186" class="st4" width="40" height="5"/>
	<path class="st2" d="M886.9,175.4h11.3l-5.6,5.6L886.9,175.4z M891.5,163h2.1v14.1h-2.1V163z"/>
</g>

</svg>